<svg width="361" height="474" viewBox="0 0 361 474" fill="none" xmlns="http://www.w3.org/2000/svg">
<path d="M1.6032 142.095C-9.24159 75.3483 36.0758 12.4481 102.822 1.60326C169.569 -9.24153 232.469 36.0759 243.314 102.822C254.159 169.569 208.841 232.469 142.095 243.314C75.3482 254.159 12.448 208.842 1.6032 142.095Z" fill="#DBC9FF"/>
<path d="M279.144 236.494C279.144 236.494 222.778 247.077 190.987 248.739C151.806 250.787 107.727 244.029 107.727 244.029L243.691 105.299C243.691 105.299 247.328 117.543 243.314 175.239C241.673 198.825 279.144 236.494 279.144 236.494Z" fill="#DBC9FF"/>
<path d="M559.553 331.439C570.398 398.185 525.08 461.086 458.334 471.93C391.587 482.775 328.687 437.458 317.842 370.711C306.997 303.965 352.315 241.064 419.061 230.22C485.808 219.375 548.708 264.692 559.553 331.439Z" fill="#DBC9FF"/>
<path d="M282.012 237.04C282.012 237.04 338.378 226.457 370.169 224.795C409.35 222.746 453.429 229.504 453.429 229.504L317.465 368.235C317.465 368.235 313.828 355.991 317.842 298.295C319.483 274.709 282.012 237.04 282.012 237.04Z" fill="#DBC9FF"/>
<circle cx="73.4642" cy="105.575" r="14.6928" fill="#24252A"/>
<circle cx="161.615" cy="105.575" r="14.6928" fill="#24252A"/>
</svg>
